<svg xmlns="http://www.w3.org/2000/svg" version="1.1" xmlns:xlink="http://www.w3.org/1999/xlink" xmlns:svgjs="http://svgjs.dev/svgjs" width="128" height="128" viewBox="0 0 128 128"><g transform="matrix(0.8046875,0,0,0.8046875,12.760752631578946,12.760752631578946)"><svg viewBox="0 0 95 95" data-background-color="#1051b2" preserveAspectRatio="xMidYMid meet" height="128" width="128" xmlns="http://www.w3.org/2000/svg" xmlns:xlink="http://www.w3.org/1999/xlink"><g id="tight-bounds" transform="matrix(1,0,0,1,-0.24049999999999727,-0.24049999999999727)"><svg viewBox="0 0 95.481 95.481" height="95.481" width="95.481"><g><svg viewBox="0 0 95.481 95.481" height="95.481" width="95.481"><g><svg viewBox="0 0 95.481 95.481" height="95.481" width="95.481"><g id="textblocktransform"><svg viewBox="0 0 95.481 95.481" height="95.481" width="95.481" id="textblock"><g><svg viewBox="0 0 95.481 95.481" height="95.481" width="95.481"><g><svg viewBox="0 0 95.481 95.481" height="95.481" width="95.481"><g><svg version="1.1" xmlns="http://www.w3.org/2000/svg" xmlns:xlink="http://www.w3.org/1999/xlink" x="0" y="0" viewBox="0 0 100 100" enable-background="new 0 0 100 100" xml:space="preserve" height="95.481" width="95.481" class="icon-icon-0" data-fill-palette-color="accent" id="icon-0"></svg></g></svg></g></svg></g></svg></g></svg></g><g></g></svg></g><defs></defs><mask id="8c32b0c3-d610-451b-b9e8-e97d4ba43652"><g id="SvgjsG1792"><svg viewBox="0 0 95.481 95.481" height="95.481" width="95.481"><g><svg viewBox="0 0 95.481 95.481" height="95.481" width="95.481"><g><svg viewBox="0 0 95.481 95.481" height="95.481" width="95.481"><g id="SvgjsG1791"><svg viewBox="0 0 95.481 95.481" height="95.481" width="95.481" id="SvgjsSvg1790"><g><svg viewBox="0 0 95.481 95.481" height="95.481" width="95.481"><g><svg viewBox="0 0 95.481 95.481" height="95.481" width="95.481"><g><svg version="1.1" xmlns="http://www.w3.org/2000/svg" xmlns:xlink="http://www.w3.org/1999/xlink" x="0" y="0" viewBox="0 0 100 100" enable-background="new 0 0 100 100" xml:space="preserve" height="95.481" width="95.481" class="icon-icon-0" data-fill-palette-color="accent" id="SvgjsSvg1789"><path fill="white" d="M34.096 87.131c0.733 3.924 1.772 7.68 3.125 11.215 4.081 1.075 8.362 1.654 12.78 1.654 5.802 0 11.368-0.999 16.548-2.816-7.291-1.649-12.67-3.692-17.502-5.533C44.073 89.756 39.628 88.066 34.096 87.131z"></path><path fill="white" d="M16.133 86.771c5.212 4.804 11.446 8.506 18.341 10.756-1.199-3.428-2.121-7.026-2.791-10.745C27.406 86.266 22.433 86.189 16.133 86.771z"></path><path fill="white" d="M31.297 84.459c-0.35-2.314-0.606-4.67-0.78-7.052-12.685-2.49-22.74-7.078-28.392-12.974 2.32 7.705 6.451 14.619 11.895 20.265C21.036 83.939 26.587 83.943 31.297 84.459z"></path><path fill="white" d="M26.386 62.896c1.147 0.599 2.469 1.125 3.967 1.49C31.544 36.795 41.811 8.892 50.14 0.004 50.093 0.003 50.049 0 50.001 0 35.055 0 21.646 6.568 12.483 16.967 7.823 29.952 12.04 55.42 26.386 62.896z"></path><path fill="white" d="M30.372 75.027c-0.136-2.754-0.165-5.533-0.097-8.323-1.888-0.408-3.536-1.05-4.943-1.783C11.51 57.719 6.447 36.023 8.99 21.413 3.33 29.516 0 39.367 0 50c0 2.982 0.276 5.898 0.777 8.738C4.521 66.052 15.61 72 30.372 75.027z"></path><path fill="white" d="M32.713 64.798c10.769 1.151 28.922-6.379 55.191-47.383C79.42 7.554 67.164 1.044 53.369 0.126 45.312 5.787 33.938 35.678 32.713 64.798z"></path><path fill="white" d="M45.622 79.277c-4.445-0.256-8.703-0.741-12.724-1.432 0.179 2.346 0.442 4.656 0.796 6.926 6.188 0.946 10.987 2.772 16.163 4.744 5.467 2.082 11.645 4.428 20.527 6.137 12.652-5.658 22.519-16.418 26.988-29.668C85.82 77.213 63.209 80.294 45.622 79.277z"></path><path fill="white" d="M32.64 67.068c-0.066 2.826-0.034 5.639 0.11 8.414 4.106 0.735 8.462 1.254 13.003 1.517 18.884 1.091 43.675-2.563 53.067-16.218C99.584 57.309 100 53.704 100 50c0-11.591-3.957-22.251-10.576-30.732C62.98 60.32 44.125 68.164 32.64 67.068z"></path></svg></g></svg></g></svg></g></svg></g></svg></g><g></g></svg></g><defs><mask></mask></defs></svg><rect width="95.481" height="95.481" fill="black" stroke="none" visibility="hidden"></rect></g></mask><linearGradient x1="0.054" x2="0.941" y1="0.5" y2="0.5" id="19be214d-97b9-4697-b11f-abeb1fb82511"><stop stop-color="#0f3054" offset="0"></stop><stop stop-color="#3b8dcb" offset="0.498"></stop><stop stop-color="#0f3054" offset="1"></stop></linearGradient><rect width="95.481" height="95.481" fill="url(#19be214d-97b9-4697-b11f-abeb1fb82511)" mask="url(#8c32b0c3-d610-451b-b9e8-e97d4ba43652)" data-fill-palette-color="accent"></rect></svg><rect width="95.481" height="95.481" fill="none" stroke="none" visibility="hidden"></rect></g></svg></g></svg>