<svg xmlns="http://www.w3.org/2000/svg" version="1.1" xmlns:xlink="http://www.w3.org/1999/xlink" xmlns:svgjs="http://svgjs.dev/svgjs" width="1500" height="1500" viewBox="0 0 1500 1500"><rect width="1500" height="1500" fill="#000000"></rect><g transform="matrix(0.6666666666666666,0,0,0.6666666666666666,250.20081207619808,384.9624831309042)"><svg viewBox="0 0 338 247" data-background-color="#1051b2" preserveAspectRatio="xMidYMid meet" height="1096" width="1500" xmlns="http://www.w3.org/2000/svg" xmlns:xlink="http://www.w3.org/1999/xlink"><g id="tight-bounds" transform="matrix(1,0,0,1,-0.0678744817549557,-0.09999999999999432)"><svg viewBox="0 0 338.1357489635099 247.2" height="247.2" width="338.1357489635099"><g><svg viewBox="0 0 395.52 289.151751329763" height="247.2" width="338.1357489635099"><g transform="matrix(1,0,0,1,0,214.6204017323588)"><svg viewBox="0 0 395.52 74.53134959740416" height="74.53134959740416" width="395.52"><g id="textblocktransform"><svg viewBox="0 0 395.52 74.53134959740416" height="74.53134959740416" width="395.52" id="textblock"><g><svg viewBox="0 0 395.52 74.53134959740416" height="74.53134959740416" width="395.52"><g transform="matrix(1,0,0,1,0,0)"><svg width="395.52" viewBox="2.78 -37.77 203.14 38.28" height="74.53134959740416" data-palette-color="#ce4840"><path d="M2.78-14.33L2.78-14.33Q2.78-17.5 3.94-20.25 5.1-23 7.34-25.01 9.57-27.03 12.81-28.17 16.04-29.32 20.19-29.32L20.19-29.32Q22-29.32 23.83-29.1 25.66-28.88 27.36-28.48 29.05-28.08 30.54-27.53 32.03-26.98 33.13-26.32L33.13-26.32 29.79-20.87Q27.42-21.97 25.31-22.49 23.19-23 21.02-23L21.02-23Q18.53-23 16.55-22.35 14.58-21.7 13.2-20.54 11.82-19.38 11.1-17.81 10.38-16.24 10.38-14.38L10.38-14.38Q10.38-12.52 11.15-10.95 11.91-9.38 13.32-8.24 14.72-7.1 16.71-6.46 18.7-5.81 21.14-5.81L21.14-5.81Q23.83-5.81 26.21-6.57 28.59-7.32 30.64-8.59L30.64-8.59 33.98-3.15Q32.69-2.37 31.18-1.7 29.66-1.03 27.94-0.54 26.22-0.05 24.33 0.23 22.44 0.51 20.41 0.51L20.41 0.51Q16.28 0.51 13.01-0.61 9.74-1.73 7.47-3.72 5.2-5.71 3.99-8.42 2.78-11.13 2.78-14.33ZM40.04-14.4L40.04-14.4Q40.04-17.5 41.29-20.21 42.55-22.92 44.88-24.95 47.21-26.98 50.52-28.15 53.83-29.32 57.96-29.32L57.96-29.32Q62.08-29.32 65.39-28.15 68.7-26.98 71.03-24.95 73.36-22.92 74.62-20.21 75.88-17.5 75.88-14.4L75.88-14.4Q75.88-11.3 74.62-8.59 73.36-5.88 71.03-3.86 68.7-1.83 65.39-0.66 62.08 0.51 57.96 0.51L57.96 0.51Q53.83 0.51 50.52-0.66 47.21-1.83 44.88-3.86 42.55-5.88 41.29-8.59 40.04-11.3 40.04-14.4ZM47.63-14.4L47.63-14.4Q47.63-12.67 48.33-11.12 49.02-9.57 50.35-8.39 51.68-7.2 53.6-6.51 55.52-5.81 57.96-5.81L57.96-5.81Q60.4-5.81 62.31-6.51 64.23-7.2 65.56-8.39 66.89-9.57 67.59-11.12 68.28-12.67 68.28-14.4L68.28-14.4Q68.28-16.14 67.59-17.7 66.89-19.26 65.56-20.45 64.23-21.63 62.31-22.33 60.4-23.02 57.96-23.02L57.96-23.02Q55.52-23.02 53.6-22.33 51.68-21.63 50.35-20.45 49.02-19.26 48.33-17.7 47.63-16.14 47.63-14.4ZM83.17-13.75L83.17-28.83 90.38-28.83 90.38-14.77Q90.38-12.77 90.82-11.12 91.25-9.47 92.32-8.3 93.38-7.13 95.15-6.48 96.92-5.83 99.56-5.83L99.56-5.83Q100.8-5.83 102.08-6.1 103.36-6.37 104.54-6.85 105.71-7.32 106.72-7.98 107.73-8.64 108.47-9.42L108.47-9.42 108.47-28.83 115.69-28.83 115.69 0 108.47 0 108.47-2.47Q105.81-0.88 103.12-0.2 100.43 0.49 98.02 0.49L98.02 0.49Q94.06 0.49 91.24-0.46 88.42-1.42 86.63-3.23 84.83-5.05 84-7.7 83.17-10.35 83.17-13.75L83.17-13.75ZM124.87 0L124.87-28.81 132.1-28.81 132.1-24.66Q134.49-26.44 137.15-27.73 139.81-29.03 142.45-29.71L142.45-29.71 144.57-23.1Q140.4-22.68 137.24-21.23 134.07-19.78 132.1-17.14L132.1-17.14 132.1 0 124.87 0ZM154.29 0L154.29-23.39 147.33-23.39 147.33-28.81 154.29-28.81 154.29-37.77 161.51-37.77 161.51-28.81 168.47-28.81 168.47-23.39 161.51-23.39 161.51 0 154.29 0ZM172.91-3.37L176.04-8.84Q178.97-7.08 182.48-6.25 186-5.42 189.68-5.42L189.68-5.42Q192.18-5.42 193.84-5.76 195.5-6.1 196.5-6.64 197.5-7.18 197.91-7.86 198.33-8.54 198.33-9.25L198.33-9.25Q198.33-10.28 197.44-11.01 196.55-11.74 194.49-11.74L194.49-11.74Q193.54-11.74 192.44-11.62 191.34-11.5 190.14-11.36 188.93-11.23 187.62-11.11 186.32-10.99 184.97-10.99L184.97-10.99Q182.04-10.99 179.98-11.62 177.92-12.26 176.62-13.35 175.33-14.45 174.74-15.95 174.16-17.46 174.16-19.19L174.16-19.19Q174.16-21.39 175.18-23.24 176.21-25.1 178.11-26.45 180.02-27.81 182.71-28.56 185.41-29.32 188.73-29.32L188.73-29.32Q190.47-29.32 192.36-29.11 194.25-28.91 196.08-28.56 197.91-28.22 199.6-27.77 201.28-27.32 202.58-26.81L202.58-26.81 200.3-21.19Q197.55-22.22 194.8-22.81 192.05-23.41 189.15-23.41L189.15-23.41Q187.12-23.41 185.72-23.11 184.31-22.8 183.43-22.3 182.56-21.8 182.15-21.15 181.75-20.51 181.75-19.8L181.75-19.8Q181.75-19.29 181.96-18.87 182.17-18.46 182.64-18.15 183.12-17.85 183.89-17.69 184.66-17.53 185.78-17.53L185.78-17.53Q186.8-17.53 187.95-17.65 189.1-17.77 190.34-17.91 191.59-18.04 192.92-18.16 194.25-18.29 195.64-18.29L195.64-18.29Q198.23-18.29 200.17-17.68 202.11-17.07 203.38-15.97 204.65-14.87 205.29-13.38 205.92-11.89 205.92-10.13L205.92-10.13Q205.92-7.86 204.87-5.91 203.82-3.96 201.75-2.53 199.67-1.1 196.58-0.29 193.49 0.51 189.44 0.51L189.44 0.51Q186.95 0.51 184.63 0.21 182.31-0.1 180.21-0.62 178.11-1.15 176.27-1.86 174.43-2.56 172.91-3.37L172.91-3.37Z" opacity="1" transform="matrix(1,0,0,1,0,0)" fill="#ffffff" class="wordmark-text-0" data-fill-palette-color="primary" id="text-0"></path></svg></g></svg></g></svg></g></svg></g><g transform="matrix(1,0,0,1,108.04486202137738,0)"><svg viewBox="0 0 179.43027595724521 179.43027595724521" height="179.43027595724521" width="179.43027595724521"><g><svg></svg></g><g id="icon-0"><svg viewBox="0 0 179.43027595724521 179.43027595724521" height="179.43027595724521" width="179.43027595724521"><g></g><g transform="matrix(1,0,0,1,39.67159587256486,39.67159587256486)"><svg viewBox="0 0 100.0870842121155 100.0870842121155" height="100.0870842121155" width="100.0870842121155"><g><svg version="1.1" xmlns="http://www.w3.org/2000/svg" xmlns:xlink="http://www.w3.org/1999/xlink" x="0" y="0" viewBox="0 0 100 100" enable-background="new 0 0 100 100" xml:space="preserve" height="100.0870842121155" width="100.0870842121155" class="icon-cg-0" data-fill-palette-color="quaternary" id="cg-0"><path fill="#000000" d="M34.096 87.131c0.733 3.924 1.772 7.68 3.125 11.215 4.081 1.075 8.362 1.654 12.78 1.654 5.802 0 11.368-0.999 16.548-2.816-7.291-1.649-12.67-3.692-17.502-5.533C44.073 89.756 39.628 88.066 34.096 87.131z" data-fill-palette-color="quaternary"></path><path fill="#000000" d="M16.133 86.771c5.212 4.804 11.446 8.506 18.341 10.756-1.199-3.428-2.121-7.026-2.791-10.745C27.406 86.266 22.433 86.189 16.133 86.771z" data-fill-palette-color="quaternary"></path><path fill="#000000" d="M31.297 84.459c-0.35-2.314-0.606-4.67-0.78-7.052-12.685-2.49-22.74-7.078-28.392-12.974 2.32 7.705 6.451 14.619 11.895 20.265C21.036 83.939 26.587 83.943 31.297 84.459z" data-fill-palette-color="quaternary"></path><path fill="#000000" d="M26.386 62.896c1.147 0.599 2.469 1.125 3.967 1.49C31.544 36.795 41.811 8.892 50.14 0.004 50.093 0.003 50.049 0 50.001 0 35.055 0 21.646 6.568 12.483 16.967 7.823 29.952 12.04 55.42 26.386 62.896z" data-fill-palette-color="quaternary"></path><path fill="#000000" d="M30.372 75.027c-0.136-2.754-0.165-5.533-0.097-8.323-1.888-0.408-3.536-1.05-4.943-1.783C11.51 57.719 6.447 36.023 8.99 21.413 3.33 29.516 0 39.367 0 50c0 2.982 0.276 5.898 0.777 8.738C4.521 66.052 15.61 72 30.372 75.027z" data-fill-palette-color="quaternary"></path><path fill="#000000" d="M32.713 64.798c10.769 1.151 28.922-6.379 55.191-47.383C79.42 7.554 67.164 1.044 53.369 0.126 45.312 5.787 33.938 35.678 32.713 64.798z" data-fill-palette-color="quaternary"></path><path fill="#000000" d="M45.622 79.277c-4.445-0.256-8.703-0.741-12.724-1.432 0.179 2.346 0.442 4.656 0.796 6.926 6.188 0.946 10.987 2.772 16.163 4.744 5.467 2.082 11.645 4.428 20.527 6.137 12.652-5.658 22.519-16.418 26.988-29.668C85.82 77.213 63.209 80.294 45.622 79.277z" data-fill-palette-color="quaternary"></path><path fill="#000000" d="M32.64 67.068c-0.066 2.826-0.034 5.639 0.11 8.414 4.106 0.735 8.462 1.254 13.003 1.517 18.884 1.091 43.675-2.563 53.067-16.218C99.584 57.309 100 53.704 100 50c0-11.591-3.957-22.251-10.576-30.732C62.98 60.32 44.125 68.164 32.64 67.068z" data-fill-palette-color="quaternary"></path></svg></g></svg></g></svg></g></svg></g><g></g></svg></g><defs></defs><mask id="a849ea12-d7a6-47d3-8144-ffeeba8a968a"><g id="SvgjsG1271"><svg viewBox="0 0 338.1357489635099 247.2" height="247.2" width="338.1357489635099"><g><svg viewBox="0 0 395.52 289.151751329763" height="247.2" width="338.1357489635099"><g transform="matrix(1,0,0,1,0,214.6204017323588)"><svg viewBox="0 0 395.52 74.53134959740416" height="74.53134959740416" width="395.52"><g id="SvgjsG1270"><svg viewBox="0 0 395.52 74.53134959740416" height="74.53134959740416" width="395.52" id="SvgjsSvg1269"><g><svg viewBox="0 0 395.52 74.53134959740416" height="74.53134959740416" width="395.52"><g transform="matrix(1,0,0,1,0,0)"><svg width="395.52" viewBox="2.78 -37.77 203.14 38.28" height="74.53134959740416" data-palette-color="#ce4840"><path d="M2.78-14.33L2.78-14.33Q2.78-17.5 3.94-20.25 5.1-23 7.34-25.01 9.57-27.03 12.81-28.17 16.04-29.32 20.19-29.32L20.19-29.32Q22-29.32 23.83-29.1 25.66-28.88 27.36-28.48 29.05-28.08 30.54-27.53 32.03-26.98 33.13-26.32L33.13-26.32 29.79-20.87Q27.42-21.97 25.31-22.49 23.19-23 21.02-23L21.02-23Q18.53-23 16.55-22.35 14.58-21.7 13.2-20.54 11.82-19.38 11.1-17.81 10.38-16.24 10.38-14.38L10.38-14.38Q10.38-12.52 11.15-10.95 11.91-9.38 13.32-8.24 14.72-7.1 16.71-6.46 18.7-5.81 21.14-5.81L21.14-5.81Q23.83-5.81 26.21-6.57 28.59-7.32 30.64-8.59L30.64-8.59 33.98-3.15Q32.69-2.37 31.18-1.7 29.66-1.03 27.94-0.54 26.22-0.05 24.33 0.23 22.44 0.51 20.41 0.51L20.41 0.51Q16.28 0.51 13.01-0.61 9.74-1.73 7.47-3.72 5.2-5.71 3.99-8.42 2.78-11.13 2.78-14.33ZM40.04-14.4L40.04-14.4Q40.04-17.5 41.29-20.21 42.55-22.92 44.88-24.95 47.21-26.98 50.52-28.15 53.83-29.32 57.96-29.32L57.96-29.32Q62.08-29.32 65.39-28.15 68.7-26.98 71.03-24.95 73.36-22.92 74.62-20.21 75.88-17.5 75.88-14.4L75.88-14.4Q75.88-11.3 74.62-8.59 73.36-5.88 71.03-3.86 68.7-1.83 65.39-0.66 62.08 0.51 57.96 0.51L57.96 0.51Q53.83 0.51 50.52-0.66 47.21-1.83 44.88-3.86 42.55-5.88 41.29-8.59 40.04-11.3 40.04-14.4ZM47.63-14.4L47.63-14.4Q47.63-12.67 48.33-11.12 49.02-9.57 50.35-8.39 51.68-7.2 53.6-6.51 55.52-5.81 57.96-5.81L57.96-5.81Q60.4-5.81 62.31-6.51 64.23-7.2 65.56-8.39 66.89-9.57 67.59-11.12 68.28-12.67 68.28-14.4L68.28-14.4Q68.28-16.14 67.59-17.7 66.89-19.26 65.56-20.45 64.23-21.63 62.31-22.33 60.4-23.02 57.96-23.02L57.96-23.02Q55.52-23.02 53.6-22.33 51.68-21.63 50.35-20.45 49.02-19.26 48.33-17.7 47.63-16.14 47.63-14.4ZM83.17-13.75L83.17-28.83 90.38-28.83 90.38-14.77Q90.38-12.77 90.82-11.12 91.25-9.47 92.32-8.3 93.38-7.13 95.15-6.48 96.92-5.83 99.56-5.83L99.56-5.83Q100.8-5.83 102.08-6.1 103.36-6.37 104.54-6.85 105.71-7.32 106.72-7.98 107.73-8.64 108.47-9.42L108.47-9.42 108.47-28.83 115.69-28.83 115.69 0 108.47 0 108.47-2.47Q105.81-0.88 103.12-0.2 100.43 0.49 98.02 0.49L98.02 0.49Q94.06 0.49 91.24-0.46 88.42-1.42 86.63-3.23 84.83-5.05 84-7.7 83.17-10.35 83.17-13.75L83.17-13.75ZM124.87 0L124.87-28.81 132.1-28.81 132.1-24.66Q134.49-26.44 137.15-27.73 139.81-29.03 142.45-29.71L142.45-29.71 144.57-23.1Q140.4-22.68 137.24-21.23 134.07-19.78 132.1-17.14L132.1-17.14 132.1 0 124.87 0ZM154.29 0L154.29-23.39 147.33-23.39 147.33-28.81 154.29-28.81 154.29-37.77 161.51-37.77 161.51-28.81 168.47-28.81 168.47-23.39 161.51-23.39 161.51 0 154.29 0ZM172.91-3.37L176.04-8.84Q178.97-7.08 182.48-6.25 186-5.42 189.68-5.42L189.68-5.42Q192.18-5.42 193.84-5.76 195.5-6.1 196.5-6.64 197.5-7.18 197.91-7.86 198.33-8.54 198.33-9.25L198.33-9.25Q198.33-10.28 197.44-11.01 196.55-11.74 194.49-11.74L194.49-11.74Q193.54-11.74 192.44-11.62 191.34-11.5 190.14-11.36 188.93-11.23 187.62-11.11 186.32-10.99 184.97-10.99L184.97-10.99Q182.04-10.99 179.98-11.62 177.92-12.26 176.62-13.35 175.33-14.45 174.74-15.95 174.16-17.46 174.16-19.19L174.16-19.19Q174.16-21.39 175.18-23.24 176.21-25.1 178.11-26.45 180.02-27.81 182.71-28.56 185.41-29.32 188.73-29.32L188.73-29.32Q190.47-29.32 192.36-29.11 194.25-28.91 196.08-28.56 197.91-28.22 199.6-27.77 201.28-27.32 202.58-26.81L202.58-26.81 200.3-21.19Q197.55-22.22 194.8-22.81 192.05-23.41 189.15-23.41L189.15-23.41Q187.12-23.41 185.72-23.11 184.31-22.8 183.43-22.3 182.56-21.8 182.15-21.15 181.75-20.51 181.75-19.8L181.75-19.8Q181.75-19.29 181.96-18.87 182.17-18.46 182.64-18.15 183.12-17.85 183.89-17.69 184.66-17.53 185.78-17.53L185.78-17.53Q186.8-17.53 187.95-17.65 189.1-17.77 190.34-17.91 191.59-18.04 192.92-18.16 194.25-18.29 195.64-18.29L195.64-18.29Q198.23-18.29 200.17-17.68 202.11-17.07 203.38-15.97 204.65-14.87 205.29-13.38 205.92-11.89 205.92-10.13L205.92-10.13Q205.92-7.86 204.87-5.91 203.82-3.96 201.75-2.53 199.67-1.1 196.58-0.29 193.49 0.51 189.44 0.51L189.44 0.51Q186.95 0.51 184.63 0.21 182.31-0.1 180.21-0.62 178.11-1.15 176.27-1.86 174.43-2.56 172.91-3.37L172.91-3.37Z" opacity="1" transform="matrix(1,0,0,1,0,0)" fill="black" class="wordmark-text-0" id="SvgjsPath1268"></path></svg></g></svg></g></svg></g></svg></g><g transform="matrix(1,0,0,1,108.04486202137738,0)"><svg viewBox="0 0 179.43027595724521 179.43027595724521" height="179.43027595724521" width="179.43027595724521"><g><svg></svg></g><g id="SvgjsG1267"><svg viewBox="0 0 179.43027595724521 179.43027595724521" height="179.43027595724521" width="179.43027595724521"><g><path d="M0 89.715c0-49.548 40.167-89.715 89.715-89.715 49.548 0 89.715 40.167 89.715 89.715 0 49.548-40.167 89.715-89.715 89.715-49.548 0-89.715-40.167-89.715-89.715zM89.715 172.709c45.836 0 82.994-37.158 82.994-82.994 0-45.836-37.158-82.994-82.994-82.994-45.836 0-82.994 37.158-82.994 82.994 0 45.836 37.158 82.994 82.994 82.994z" fill="white" stroke="transparent"></path><ellipse rx="88.81798659883638" ry="88.81798659883638" cx="89.71513797862261" cy="89.71513797862261" fill="white" stroke="transparent" stroke-width="0" fill-opacity="1"></ellipse></g><g transform="matrix(1,0,0,1,39.67159587256486,39.67159587256486)"><svg viewBox="0 0 100.0870842121155 100.0870842121155" height="100.0870842121155" width="100.0870842121155"><g><svg version="1.1" xmlns="http://www.w3.org/2000/svg" xmlns:xlink="http://www.w3.org/1999/xlink" x="0" y="0" viewBox="0 0 100 100" enable-background="new 0 0 100 100" xml:space="preserve" height="100.0870842121155" width="100.0870842121155" class="icon-cg-0" data-fill-palette-color="quaternary" id="SvgjsSvg1266"><path fill="black" d="M34.096 87.131c0.733 3.924 1.772 7.68 3.125 11.215 4.081 1.075 8.362 1.654 12.78 1.654 5.802 0 11.368-0.999 16.548-2.816-7.291-1.649-12.67-3.692-17.502-5.533C44.073 89.756 39.628 88.066 34.096 87.131z"></path><path fill="black" d="M16.133 86.771c5.212 4.804 11.446 8.506 18.341 10.756-1.199-3.428-2.121-7.026-2.791-10.745C27.406 86.266 22.433 86.189 16.133 86.771z"></path><path fill="black" d="M31.297 84.459c-0.35-2.314-0.606-4.67-0.78-7.052-12.685-2.49-22.74-7.078-28.392-12.974 2.32 7.705 6.451 14.619 11.895 20.265C21.036 83.939 26.587 83.943 31.297 84.459z"></path><path fill="black" d="M26.386 62.896c1.147 0.599 2.469 1.125 3.967 1.49C31.544 36.795 41.811 8.892 50.14 0.004 50.093 0.003 50.049 0 50.001 0 35.055 0 21.646 6.568 12.483 16.967 7.823 29.952 12.04 55.42 26.386 62.896z"></path><path fill="black" d="M30.372 75.027c-0.136-2.754-0.165-5.533-0.097-8.323-1.888-0.408-3.536-1.05-4.943-1.783C11.51 57.719 6.447 36.023 8.99 21.413 3.33 29.516 0 39.367 0 50c0 2.982 0.276 5.898 0.777 8.738C4.521 66.052 15.61 72 30.372 75.027z"></path><path fill="black" d="M32.713 64.798c10.769 1.151 28.922-6.379 55.191-47.383C79.42 7.554 67.164 1.044 53.369 0.126 45.312 5.787 33.938 35.678 32.713 64.798z"></path><path fill="black" d="M45.622 79.277c-4.445-0.256-8.703-0.741-12.724-1.432 0.179 2.346 0.442 4.656 0.796 6.926 6.188 0.946 10.987 2.772 16.163 4.744 5.467 2.082 11.645 4.428 20.527 6.137 12.652-5.658 22.519-16.418 26.988-29.668C85.82 77.213 63.209 80.294 45.622 79.277z"></path><path fill="black" d="M32.64 67.068c-0.066 2.826-0.034 5.639 0.11 8.414 4.106 0.735 8.462 1.254 13.003 1.517 18.884 1.091 43.675-2.563 53.067-16.218C99.584 57.309 100 53.704 100 50c0-11.591-3.957-22.251-10.576-30.732C62.98 60.32 44.125 68.164 32.64 67.068z"></path></svg></g></svg></g></svg></g></svg></g><g></g></svg></g><defs><mask></mask></defs></svg><rect width="338.1357489635099" height="247.2" fill="black" stroke="none" visibility="hidden"></rect></g></mask><linearGradient x1="0.054" x2="0.941" y1="0.5" y2="0.5" id="08d1bc64-a1ab-4d77-a6fc-97a195553b82"><stop stop-color="#0f3054" offset="0"></stop><stop stop-color="#3b8dcb" offset="0.498"></stop><stop stop-color="#0f3054" offset="1"></stop></linearGradient><rect width="338.1357489635099" height="247.2" fill="#ffffff" mask="url(#a849ea12-d7a6-47d3-8144-ffeeba8a968a)" data-fill-palette-color="accent"></rect></svg><rect width="338.1357489635099" height="247.2" fill="none" stroke="none" visibility="hidden"></rect></g></svg></g></svg>